<?xml version="1.0" encoding="UTF-8"?><svg id="Layer_1" xmlns="http://www.w3.org/2000/svg" viewBox="0 0 972.83 121.53"><path class="cls-1" d="M24.47,118.84H0L44.08,0h23.8l43.92,118.84h-25.31L55.48,30.51,24.47,118.84Z"/><path class="cls-1" d="M240.35,0h24.47l-44.08,118.84h-23.8L153.02,0h25.31l31.01,88.34L240.35,0Z"/><path class="cls-1" d="M328.68,118.84V0h23.46V118.84h-23.46Z"/><path class="cls-1" d="M477.86,21.96V118.84h-23.31V21.96h-37.54V0h98.39V21.96h-37.54Z"/><path class="cls-1" d="M624.69,121.53c-6.37,0-12.32-.95-17.85-2.85-5.52-1.9-10.34-4.75-14.42-8.54-4.08-3.81-7.32-8.49-9.72-14.08-2.4-5.59-3.61-12.01-3.61-19.28V0h23.14V75.1c0,7.82,2,13.74,6.03,17.77,4.03,4.03,9.5,6.03,16.43,6.03s12.57-2,16.6-6.03c4.03-4.03,6.03-9.95,6.03-17.77V0h23.14V76.77c0,7.27-1.21,13.69-3.61,19.28-2.4,5.59-5.64,10.27-9.72,14.08-4.09,3.8-8.91,6.65-14.5,8.54-5.59,1.9-11.56,2.85-17.94,2.85Z"/><path class="cls-1" d="M780.4,73.08h-12.08v45.76h-23.29V0h46.43c5.81,0,11.03,.95,15.67,2.85,4.63,1.9,8.6,4.48,11.9,7.72,3.29,3.24,5.84,7.1,7.62,11.56,1.79,4.47,2.68,9.28,2.68,14.42,0,8.38-2.26,15.53-6.78,21.45-4.53,5.92-10.7,10-18.52,12.23l25.48,48.61h-25.81l-23.29-45.76Zm6.7-19.94c5.92,0,10.5-1.51,13.74-4.53,3.24-3.02,4.86-6.98,4.86-11.9s-1.62-9.06-4.86-12.07c-3.24-3.02-7.82-4.53-13.74-4.53h-18.78V53.14h18.78Z"/><path class="cls-1" d="M898.41,118.84V0h74.42V21.8h-51.3v27.15h46.43v20.61h-46.43v27.5h51.3v21.79h-74.42Z"/></svg>