<svg xmlns="http://www.w3.org/2000/svg" height="288" width="960" viewBox="0 0 960 288"  xml:space="preserve"><defs><clipPath id="a" clipPathUnits="userSpaceOnUse"><path d="M0 216h720V0H0Z"/></clipPath></defs><path style="fill:currentColor;fill-opacity:1;fill-rule:nonzero;stroke:none" d="m0 0-29.377 38.603h-12.717v-62.697h13.614v39.857L1.882-24.094h11.732v62.697H0Z" transform="matrix(1.33333 0 0 -1.33333 256.207 132.56)"/><path style="fill:currentColor;fill-opacity:1;fill-rule:nonzero;stroke:none" d="m0 0 8.33 20.332L16.659 0Zm2.149 36.901L-24.72-26.243h14.062l5.732 14.062h26.511l5.732-14.062h14.42L14.869 36.901Z" transform="matrix(1.33333 0 0 -1.33333 317.236 129.694)"/><g clip-path="url(#a)" transform="matrix(1.33333 0 0 -1.33333 0 288)"><path style="fill:currentColor;fill-opacity:1;fill-rule:nonzero;stroke:none" d="M0 0c0-4.658-3.673-6.806-9.764-6.806h-16.39V6.985h15.943C-3.135 6.985 0 4.389 0 .178Zm-26.154 31.705h13.614c5.822 0 9.047-2.328 9.047-6.449v-.178c0-4.658-3.853-6.629-9.943-6.629h-12.718ZM1.97 13.882c4.478 2.507 8.24 6.449 8.24 13.524v.18c0 9.851-7.881 16.211-20.69 16.211h-29.109V-18.9h29.825c14.153 0 23.467 5.733 23.467 17.197v.179c0 8.42-4.479 12.63-11.733 15.406" transform="translate(328.034 111.386)"/><path style="fill:currentColor;fill-opacity:1;fill-rule:nonzero;stroke:none" d="M0 0c0-5.284-3.854-8.867-10.568-8.867h-13.973V9.134h13.705C-4.121 9.134 0 6.09 0 .178Zm13.973.716v.179c0 12.897-8.869 20.69-23.647 20.69h-28.66v-62.697h13.793v20.064h10.838L-.27-41.112h16.124L.537-18.72C8.51-15.763 13.973-9.405 13.973.716" transform="translate(391 133.598)"/><path style="fill:currentColor;fill-opacity:1;fill-rule:nonzero;stroke:none" d="M418.053 92.486h13.791v62.697h-13.791z"/><path style="fill:currentColor;fill-opacity:1;fill-rule:nonzero;stroke:none" d="M0 0c0-11.106-7.613-18.719-18.9-18.719h-10.659v37.795H-18.9C-7.613 19.076 0 11.284 0 .179Zm-18.9 31.527h-24.452V-31.17H-18.9C.803-31.17 14.418-17.466 14.418.179v.179c0 17.643-13.615 31.169-33.318 31.169" transform="translate(490.871 123.656)"/><path style="fill:currentColor;fill-opacity:1;fill-rule:nonzero;stroke:none" d="M0 0h13.883v-8.958c-3.492-2.506-7.971-3.761-12.988-3.761-11.104 0-18.989 8.42-18.989 19.884v.179c0 10.658 7.975 19.524 18.006 19.524 7.254 0 11.553-2.327 16.387-6.358l8.689 10.479c-6.537 5.553-13.343 8.598-24.631 8.598-18.986 0-32.869-14.6-32.869-32.422v-.179c0-18.541 13.434-32.244 32.959-32.244 11.465 0 20.33 4.48 26.782 9.943v27.227H0Z" transform="translate(546.404 116.67)"/><path style="fill:currentColor;fill-opacity:1;fill-rule:nonzero;stroke:none" d="M0 0h29.559v12.27H0v12.718h33.588v12.271h-47.289v-62.697h47.738v12.271H0z" transform="translate(598.354 117.924)"/><path style="fill:currentColor;fill-opacity:1;fill-rule:nonzero;stroke:none" d="M0 0c0-11.106-7.615-18.719-18.9-18.719h-10.657v37.795H-18.9C-7.615 19.076 0 11.284 0 .179Zm-18.9 31.527h-24.452V-31.17H-18.9C.805-31.17 14.418-17.466 14.418.179v.179c0 17.643-13.613 31.169-33.318 31.169" transform="translate(688.014 123.656)"/><path style="fill:currentColor;fill-opacity:1;fill-rule:nonzero;stroke:none" d="M0 0c-.309 0-.779-.036-1.092-.036-6.636 0-11.502-3.595-11.502-12.142v-95.949c0-8.602 5.092-13.165 11.805-13.165.212 0 .601.019.789.019 4.331 0 5.527 1.473 5.527 5.532V-4.759C5.527-.676 3.488 0 0 0" transform="translate(33.422 184.243)"/><path style="fill:currentColor;fill-opacity:1;fill-rule:nonzero;stroke:none" d="M0 0c-6.749 1.449-8.326 3.07-8.326 6.004 0 2.809 2.541 4.997 6.529 4.997 3.155 0 6.004-1.007 8.852-3.329l2.016 2.673C5.959 12.842 2.76 14.114-1.71 14.114c-5.828 0-10.079-3.507-10.079-8.415 0-5.083 3.244-7.362 10.298-8.894 6.443-1.36 7.976-2.982 7.976-5.874 0-3.112-2.716-5.259-6.837-5.259-4.251 0-7.317 1.447-10.516 4.338l-2.149-2.54c3.682-3.288 7.67-4.909 12.535-4.909 6.092 0 10.472 3.418 10.472 8.721C9.99-3.986 6.836-1.488 0 0" transform="translate(304.715 57.694)"/><path style="fill:currentColor;fill-opacity:1;fill-rule:nonzero;stroke:none" d="M0 0c-7.013 0-12.096 5.697-12.096 12.71 0 7.011 4.997 12.619 12.008 12.619 7.012 0 12.094-5.695 12.094-12.708C12.006 5.61 7.01 0 0 0m0 28.528c-9.335 0-15.689-7.405-15.689-15.907 0-8.501 6.267-15.818 15.601-15.818C9.247-3.197 15.6 4.209 15.6 12.71c0 8.501-6.267 15.818-15.6 15.818" transform="translate(356.261 43.366)"/><path style="fill:currentColor;fill-opacity:1;fill-rule:nonzero;stroke:none" d="M0 0h3.461v13.367h16.607v3.156H3.461v10.956h18.582v3.2H0Z" transform="translate(398.256 40.691)"/><path style="fill:currentColor;fill-opacity:1;fill-rule:nonzero;stroke:none" d="M0 0h10.297v-27.479h3.506V0h10.299v3.2H0Z" transform="translate(446.076 68.17)"/><path style="fill:currentColor;fill-opacity:1;fill-rule:nonzero;stroke:none" d="m0 0-8.414 25.634h-2.848L-19.676 0l-8.763 25.548h-3.77l10.955-30.895h2.893l8.459 24.891 8.414-24.891h2.933l10.957 30.895H8.766Z" transform="translate(526.676 45.822)"/><path style="fill:currentColor;fill-opacity:1;fill-rule:nonzero;stroke:none" d="m0 0 7.012 15.644L13.979 0Zm5.434 19.677L-8.547-11.22h3.551l3.639 8.109h16.695l3.592-8.109h3.728L8.678 19.677Z" transform="translate(569.242 51.911)"/><path style="fill:currentColor;fill-opacity:1;fill-rule:nonzero;stroke:none" d="M0 0v12.446h9.467c4.951 0 7.844-2.278 7.844-6.09C17.311 2.366 14.023 0 9.424 0Zm20.814 6.486c0 5.522-4.337 9.16-11.084 9.16H-3.463v-30.678H0v11.924h8.766l8.894-11.924h4.252L12.488-2.497c4.823.877 8.326 3.856 8.326 8.983" transform="translate(621.578 55.724)"/><path style="fill:currentColor;fill-opacity:1;fill-rule:nonzero;stroke:none" d="M0 0v10.738h16.74v3.155H0v10.473h18.711v3.156H-3.461V-3.156H18.93V0z" transform="translate(673.432 43.848)"/><path style="fill:currentColor;fill-opacity:1;fill-rule:nonzero;stroke:none" d="M0 0c0-1.46-.294-2.833-.859-4.136a11.526 11.526 0 0 0-2.305-3.435c-.927-.96-2.052-1.72-3.361-2.268-1.304-.554-2.689-.814-4.151-.814h-32.27c-1.443 0-2.842.26-4.141.814a10.786 10.786 0 0 0-3.425 2.268 10.755 10.755 0 0 0-2.275 3.435A10.471 10.471 0 0 0-53.612 0v51.436c0 1.134.577 1.715 1.738 1.715h12.572c1.161 0 1.739-.581 1.739-1.715V6.48c0-.488.167-.884.498-1.177.331-.315.744-.461 1.228-.461h18.058c.488 0 .883.146 1.184.461.295.293.461.689.461 1.177v44.956c0 .461.166.882.488 1.219.346.327.745.496 1.242.496h12.666c.488 0 .897-.169 1.238-.496.34-.337.5-.758.5-1.219Zm7.199 80.874h-74.182c-3.984 0-5.24-.932-5.24-4.832V-34.917c0-4.256 1.445-5.551 5.302-5.551h74.12c9.018 0 13.519 4.485 13.519 13.196v95.948c0 8.455-4.582 12.198-13.519 12.198" transform="translate(118.15 103.419)"/></g></svg>