<?xml version="1.0" encoding="utf-8"?>
<!-- Generator: Adobe Illustrator 26.4.1, SVG Export Plug-In . SVG Version: 6.00 Build 0)  -->
<svg version="1.1" id="Layer_1" xmlns="http://www.w3.org/2000/svg" xmlns:xlink="http://www.w3.org/1999/xlink" x="0px" y="0px"
	 viewBox="0 0 563.4 131.1" style="enable-background:new 0 0 563.4 131.1;" xml:space="preserve">
<path d="M252.2,36.2h-7.9c-0.5,0-0.9,0.3-1,0.7l-11.4,41.4l-12.2-41.4c-0.1-0.4-0.5-0.7-1-0.7h-8.6c-0.5,0-0.9,0.3-1,0.7L197,78.3
	l-11.4-41.4c-0.1-0.4-0.5-0.7-1-0.7h-7.9c-0.6,0-1,0.4-1,1c0,0.1,0,0.2,0,0.3l16.3,55.6c0.1,0.4,0.5,0.7,1,0.7h8
	c0.5,0,0.9-0.3,1-0.7l12.5-42.4L227,93.1c0.1,0.4,0.5,0.7,1,0.7h8c0.5,0,0.9-0.3,1-0.7l16.2-55.7c0.1-0.3,0-0.6-0.2-0.9
	C252.8,36.3,252.5,36.2,252.2,36.2z"/>
<path d="M290.6,59.7c-8.1-8.2-21.3-8.2-29.5-0.1c-1.9,1.9-3.4,4.1-4.5,6.6c-1.1,2.5-1.6,5.3-1.6,8c0,5.5,2.1,10.7,6,14.6
	c1.9,1.9,4.1,3.3,6.6,4.4c5.2,2.1,11.1,2.1,16.4,0c2.5-1,4.7-2.5,6.6-4.4c3.9-3.9,6-9.1,6-14.6c0-2.7-0.5-5.5-1.6-8
	C293.9,63.7,292.5,61.5,290.6,59.7z M287.1,74.2c0,1.7-0.3,3.3-0.8,4.9c-0.5,1.4-1.2,2.7-2.2,3.7c-1,1-2.2,1.9-3.5,2.4
	c-3,1.2-6.4,1.2-9.4,0c-1.3-0.6-2.5-1.4-3.5-2.4c-1-1.1-1.7-2.4-2.2-3.7c-1.1-3.2-1.1-6.6,0-9.8c0.5-1.4,1.2-2.7,2.2-3.7
	c1-1,2.2-1.9,3.5-2.4c3-1.2,6.4-1.2,9.4,0c1.3,0.6,2.5,1.4,3.5,2.4c1,1.1,1.7,2.4,2.2,3.7C286.9,70.9,287.1,72.5,287.1,74.2z"/>
<path d="M330.3,54.2c-2.3-0.7-4.9-0.7-7.2,0c-1.2,0.4-2.3,0.8-3.4,1.5c-1,0.6-2,1.4-2.8,2.2c-0.1,0.1-0.2,0.2-0.3,0.3v-2.7
	c0-0.6-0.4-1-1-1h-7.1c-0.6,0-1,0.4-1,1v37.2c0,0.6,0.4,1,1,1h7.1c0.6,0,1-0.4,1-1V74.1c0-3.8,0.8-6.6,2.5-8.3s4.1-2.6,7.2-2.6
	c0.5,0,1,0,1.5,0.1c0.6,0.1,1.1,0.2,1.6,0.4c0.3,0.1,0.6,0,0.9-0.2c0.2-0.2,0.4-0.5,0.4-0.8l0.3-7.6C331,54.7,330.7,54.3,330.3,54.2
	z"/>
<path d="M358.4,72.6l16.7-16.2c0.4-0.4,0.4-1,0-1.4c-0.2-0.2-0.5-0.3-0.7-0.3h-9.8c-0.3,0-0.5,0.1-0.7,0.3l-14.3,14.4V33.4
	c0-0.6-0.4-1-1-1h-7.1c-0.6,0-1,0.4-1,1v59.4c0,0.6,0.4,1,1,1h7.1c0.6,0,1-0.4,1-1V76.1l15.6,17.4c0.2,0.2,0.5,0.3,0.7,0.3h10.1
	c0.4,0,0.8-0.2,0.9-0.6c0.2-0.4,0.1-0.8-0.2-1.1L358.4,72.6z"/>
<path d="M410.1,73.8c-1.1-0.9-2.4-1.7-3.8-2.2c-1.4-0.6-2.9-1-4.5-1.4l-2.9-0.6c-1-0.2-2-0.5-2.9-0.9c-0.8-0.3-1.6-0.8-2.2-1.4
	c-0.5-0.5-0.8-1.3-0.8-2c0-0.9,0.5-1.8,1.4-2.2c1.2-0.6,2.5-1,3.9-0.9c1.4,0,2.8,0.3,4,0.9c1.1,0.6,2,1.4,2.8,2.4
	c0.3,0.4,1,0.5,1.4,0.2l5.5-4.2c0.4-0.3,0.5-0.9,0.2-1.3c-1.4-2.3-3.5-4.1-6-5.1c-4.1-1.7-8.7-1.9-13-0.7c-1.7,0.5-3.4,1.2-4.9,2.3
	c-1.5,1-2.7,2.4-3.5,3.9c-0.9,1.7-1.4,3.6-1.3,5.6c0,1.7,0.3,3.4,1.1,4.9c0.7,1.3,1.6,2.4,2.8,3.3c1.2,0.9,2.5,1.5,3.9,2
	c1.4,0.5,2.9,0.9,4.5,1.3c0.8,0.2,1.7,0.3,2.7,0.6c0.9,0.2,1.9,0.5,2.7,0.9c0.8,0.3,1.4,0.8,2,1.4c0.5,0.5,0.7,1.2,0.7,1.9
	c0,0.5-0.2,1.1-0.5,1.5c-0.4,0.5-0.9,0.9-1.4,1.2c-0.7,0.4-1.4,0.6-2.1,0.8c-0.8,0.2-1.7,0.3-2.5,0.3c-1.6,0.1-3.2-0.3-4.6-1.1
	c-1.3-0.8-2.6-1.8-3.7-2.9c-0.4-0.4-1-0.4-1.4-0.1l-5.3,4.4c-0.4,0.3-0.5,0.9-0.2,1.4c1.7,2.4,4,4.3,6.7,5.5c2.7,1,5.6,1.5,8.5,1.5
	c1.9,0,3.8-0.2,5.7-0.7c1.8-0.4,3.6-1.2,5.2-2.2c1.5-1,2.8-2.4,3.8-4c1-1.8,1.5-3.8,1.5-5.9c0-1.7-0.3-3.3-0.9-4.8
	C412,75.9,411.2,74.8,410.1,73.8z"/>
<path d="M454.7,57.3c-1.3-1.2-2.9-2.2-4.7-2.8c-1.8-0.6-3.6-0.9-5.5-0.9c-2.8,0-5.6,0.6-8.1,2c-1.2,0.7-2.4,1.5-3.3,2.6V33.4
	c0-0.6-0.4-1-1-1H425c-0.6,0-1,0.4-1,1v59.4c0,0.6,0.4,1,1,1h7.1c0.6,0,1-0.4,1-1V73.6c0-1.8,0.2-3.6,0.7-5.3c0.4-1.3,1.1-2.5,2-3.5
	c0.8-0.9,1.8-1.6,2.9-2c2.1-0.8,4.4-0.9,6.6-0.2c0.9,0.3,1.7,0.8,2.3,1.4c0.7,0.7,1.3,1.6,1.6,2.6c0.5,1.3,0.7,2.7,0.6,4.1v22
	c0,0.6,0.4,1,1,1h7.1c0.6,0,1-0.4,1-1v-24c0-2.3-0.3-4.6-1.2-6.8C457.1,60.2,456,58.6,454.7,57.3z"/>
<path d="M505.4,59.7c-8.2-8.1-21.4-8.1-29.5,0c-1.9,1.9-3.4,4.1-4.4,6.5c-1.1,2.5-1.6,5.3-1.6,8c0,5.5,2.1,10.7,6,14.6
	c1.9,1.9,4.1,3.3,6.6,4.4c5.2,2.1,11.1,2.1,16.3,0c2.5-1,4.7-2.5,6.6-4.4c3.9-3.9,6-9.1,6-14.6c0-2.7-0.5-5.5-1.6-8
	C508.7,63.7,507.3,61.5,505.4,59.7z M501.9,74.2c0,1.7-0.3,3.3-0.8,4.9c-0.5,1.4-1.2,2.7-2.2,3.7c-1,1.1-2.2,1.9-3.5,2.4
	c-3,1.2-6.4,1.2-9.4,0c-1.3-0.6-2.5-1.4-3.5-2.4c-1-1.1-1.7-2.4-2.2-3.7c-1.1-3.2-1.1-6.6,0-9.8c0.5-1.4,1.2-2.7,2.2-3.7
	c1-1,2.2-1.9,3.5-2.4c3-1.2,6.4-1.2,9.4,0c1.3,0.6,2.5,1.4,3.5,2.4c1,1.1,1.7,2.4,2.2,3.7C501.7,70.9,501.9,72.5,501.9,74.2z"/>
<path d="M562,66.2c-0.9-2.4-2.2-4.7-4-6.6c-1.8-1.9-3.9-3.4-6.3-4.4c-2.6-1.1-5.4-1.6-8.2-1.6c-2.7,0-5.3,0.6-7.8,1.8
	c-1.6,0.7-3.1,1.7-4.3,3v-2.8c0-0.6-0.4-1-1-1h-7.1c-0.6,0-1,0.4-1,1V115c0,0.6,0.4,1,1,1h7.1c0.6,0,1-0.4,1-1V90.1
	c1.2,1.2,2.6,2.2,4.1,2.9c2.5,1.2,5.2,1.8,8,1.8c2.8,0,5.6-0.5,8.2-1.6c2.4-1,4.5-2.5,6.3-4.4c1.8-1.9,3.1-4.1,4-6.6
	C563.9,77.1,563.9,71.4,562,66.2z M553.9,74.2c0,1.7-0.3,3.3-0.8,4.9c-0.5,1.4-1.2,2.7-2.2,3.7c-1,1-2.2,1.9-3.5,2.4
	c-3,1.2-6.4,1.2-9.4,0c-1.3-0.6-2.5-1.4-3.5-2.4c-1-1.1-1.7-2.4-2.2-3.7c-1.1-3.2-1.1-6.6,0-9.8c0.5-1.4,1.2-2.7,2.2-3.8
	c1-1,2.2-1.9,3.5-2.4c3-1.2,6.4-1.2,9.4,0c1.3,0.6,2.5,1.4,3.5,2.4c1,1.1,1.7,2.4,2.2,3.7C553.6,70.9,553.9,72.5,553.9,74.2
	L553.9,74.2z"/>
<path d="M115.9,0H15.2C6.8,0,0,6.8,0,15.2v100.7c0,8.4,6.8,15.2,15.2,15.2h100.7c8.4,0,15.2-6.8,15.2-15.2V15.2
	C131.1,6.8,124.3,0,115.9,0z M57.1,85.5c-1.1,0.6-2.3,0.9-3.5,0.9h0c-2.7,0-5.2-1.5-6.4-3.8L25.1,41.9c-1.9-3.5-0.6-8,2.9-9.9
	c3.5-1.9,8-0.6,9.9,2.9L60,75.6C61.9,79.1,60.6,83.6,57.1,85.5z M88.3,100.9H64.2c-2.3-0.1-4.1-2.1-4-4.4c0.1-2.1,1.8-3.9,4-4h24.1
	c2.3,0.1,4.1,2.1,4,4.4C92.2,99.1,90.4,100.8,88.3,100.9z M105.9,42.1L82,82.8c-1.3,2.2-3.7,3.6-6.3,3.6h0h-0.2
	c-2.7-0.1-5.1-1.6-6.3-4L58.8,62.1c-1.7-3.7,0-8,3.7-9.7c3.4-1.5,7.5-0.2,9.3,3l4.3,8.4l17.2-29.2c2-3.5,6.5-4.6,10-2.6
	C106.8,34.1,107.9,38.6,105.9,42.1z"/>
</svg>
